# xmcd
#
# Track frame offsets:
#  150
#  23814
#  34478
#  52127
#  63328
#  81002
#  91633
#  103222
#  115417
#  126642
#  139187
#  152900
#  164969
#  178343
#  190003
#  206159
#  219682
#  234079
#  252449
#  264099
#  283257
#  297295
#  313132
#  322946
#  337021
#
# Disc length: 4671 seconds
#
# Revision: 0
# Processed by: cddbd v1.5.1PL2 Copyright (c) Steve Scherf et al.
# Submitted via: Collectorz.com_Music_Collector 6.11
#
DISCID=8c123d19
DTITLE=John Fogerty - The Long Road Home
DYEAR=2005
DGENRE=Folk/Rock
TTITLE0=Born On The Bayou
TTITLE1=Bad Moon Rising
TTITLE2=Centerfield
TTITLE3=Who'll Stop The Rain
TTITLE4=Rambunctious Boy
TTITLE5=Fortunate Son
TTITLE6=Lookin'out My Back Door
TTITLE7=Up Around The Bend
TTITLE8=Almost Saturday Night (Live)
TTITLE9=Down On The Corner
TTITLE10=Bootleg (Live)
TTITLE11=Have You Ever Seen The Rain ?
TTITLE12=Sweet Hitch Hiker
TTITLE13=Hey Tonight (Live)
TTITLE14=The Old Man Down The Road
TTITLE15=Rockin'all Over The World
TTITLE16=Lodi
TTITLE17=Keep On Chooglin (Live)
TTITLE18=Green River
TTITLE19=Deja Vu ( All Over Again)
TTITLE20=Run Through The Jungle
TTITLE21=Hot Rod Heart
TTITLE22=Travelin'band
TTITLE23=Proud Mary
TTITLE24=Fortunate Son (Live)
EXTD=
EXTT0=
EXTT1=
EXTT2=
EXTT3=
EXTT4=
EXTT5=
EXTT6=
EXTT7=
EXTT8=
EXTT9=
EXTT10=
EXTT11=
EXTT12=
EXTT13=
EXTT14=
EXTT15=
EXTT16=
EXTT17=
EXTT18=
EXTT19=
EXTT20=
EXTT21=
EXTT22=
EXTT23=
EXTT24=
PLAYORDER=
